<svg width="792" height="256" viewBox="0 0 792 256" fill="none" xmlns="http://www.w3.org/2000/svg">
<path d="M438 24H457.3L466.4 60L467.6 69.5H468.5L469.8 60L480.6 24H497.2L508 60L509.3 69.5H510.2L511.4 60L520.5 24H539.8L519.4 94H501.2L488.9 48.2L476.6 94H458.4L438 24ZM577.209 24H625.909V39.2H595.409V51.4H623.209V66.6H595.409V78.8H627.009V94H577.209V24ZM668.634 24H701.234C705.701 24 709.668 24.8 713.134 26.4C716.601 27.9333 719.268 30.0667 721.134 32.8C723.068 35.4667 724.034 38.4667 724.034 41.8C724.034 45.3333 723.434 48.1667 722.234 50.3C721.101 52.4333 719.234 54.3333 716.634 56V57.1C724.101 60.1667 727.834 65.5 727.834 73.1C727.834 77.1667 726.768 80.8 724.634 84C722.568 87.1333 719.568 89.6 715.634 91.4C711.701 93.1333 707.034 94 701.634 94H668.634V24ZM700.334 51C702.534 51 704.234 50.4667 705.434 49.4C706.634 48.3333 707.234 46.9 707.234 45.1C707.234 43.3 706.634 41.8667 705.434 40.8C704.234 39.7333 702.534 39.2 700.334 39.2H686.834V51H700.334ZM702.434 78.8C704.501 78.8 706.234 78.3 707.634 77.3C709.034 76.2333 709.734 74.6333 709.734 72.5C709.734 70.3667 709.034 68.8 707.634 67.8C706.234 66.7333 704.501 66.2 702.434 66.2H686.834V78.8H702.434ZM443.4 152H461.6V179.4H462.4L483.8 152H504.5L478.6 184.5L505.5 222H483.3L462.4 191.1H461.6V222H443.4V152ZM543.908 152H562.108V222H543.908V152ZM604.865 152H624.265L646.665 188.4L648.465 196.9H649.465V152H667.665V222H648.265L625.865 185.6L624.065 177.1H623.065V222H604.865V152ZM745.351 223C738.351 223 732.017 221.467 726.351 218.4C720.751 215.267 716.351 210.967 713.151 205.5C710.017 200.033 708.451 193.867 708.451 187C708.451 180.133 709.984 173.967 713.051 168.5C716.117 163.033 720.417 158.767 725.951 155.7C731.484 152.567 737.817 151 744.951 151C752.951 151 759.851 152.9 765.651 156.7C771.451 160.5 775.417 166 777.551 173.2L776.351 175.2L760.551 178C759.484 174.333 757.651 171.5 755.051 169.5C752.451 167.433 749.084 166.4 744.951 166.4C741.417 166.4 738.251 167.267 735.451 169C732.717 170.733 730.551 173.167 728.951 176.3C727.417 179.367 726.651 182.933 726.651 187C726.651 193.2 728.351 198.133 731.751 201.8C735.217 205.467 739.851 207.3 745.651 207.3C749.717 207.3 753.017 206.367 755.551 204.5C758.151 202.567 759.984 199.833 761.051 196.3H738.451V183.1H778.051V188.8C778.051 195.533 776.717 201.5 774.051 206.7C771.384 211.833 767.584 215.833 762.651 218.7C757.717 221.567 751.951 223 745.351 223Z" fill="#212121"/>
<path d="M6.4 24H23.4L43.2 71.8L63 24H80V94H63.2V57H62.2L60.5 69.9L50.4 94H36L25.9 69.9L24.2 57H23.2V94H6.4V24ZM122.826 24H171.526V39.2H141.026V51.4H168.826V66.6H141.026V78.8H172.626V94H122.826V24ZM6.4 152H25.8L48.2 188.4L50 196.9H51V152H69.2V222H49.8L27.4 185.6L25.6 177.1H24.6V222H6.4V152ZM142.186 223C135.853 223 130.419 221.8 125.886 219.4C121.353 216.933 117.886 213.467 115.486 209C113.153 204.533 111.986 199.3 111.986 193.3V152H130.186V193.4C130.186 197.8 131.219 201.167 133.286 203.5C135.419 205.833 138.386 207 142.186 207C145.986 207 148.919 205.833 150.986 203.5C153.119 201.167 154.186 197.8 154.186 193.4V152H172.386V193.3C172.386 199.3 171.186 204.533 168.786 209C166.453 213.467 163.019 216.933 158.486 219.4C153.953 221.8 148.519 223 142.186 223Z" fill="#212121"/>
</svg>
